<svg xmlns="http://www.w3.org/2000/svg" style="cursor: move;" width="1302" height="630"><g><path class="link" style="stroke-width: 1.03px; stroke-opacity: 1; stroke: rgb(80, 80, 80);" marker-end="" d="M508,153, 674,131.5"></path><path class="link" style="stroke-width: 1.03px; stroke-opacity: 1; stroke: rgb(80, 80, 80);" marker-end="" d="M508,153, 674,174.5"></path><path class="link" style="stroke-width: 1.03px; stroke-opacity: 1; stroke: rgb(80, 80, 80);" marker-end="" d="M508,153, 674,217.5"></path><path class="link" style="stroke-width: 1.03px; stroke-opacity: 1; stroke: rgb(80, 80, 80);" marker-end="" d="M508,153, 674,260.5"></path><path class="link" style="stroke-width: 1.03px; stroke-opacity: 1; stroke: rgb(80, 80, 80);" marker-end="" d="M508,153, 674,303.5"></path><path class="link" style="stroke-width: 1.03px; stroke-opacity: 1; stroke: rgb(80, 80, 80);" marker-end="" d="M508,153, 674,346.5"></path><path class="link" style="stroke-width: 1.03px; stroke-opacity: 1; stroke: rgb(80, 80, 80);" marker-end="" d="M508,153, 674,389.5"></path><path class="link" style="stroke-width: 1.03px; stroke-opacity: 1; stroke: rgb(80, 80, 80);" marker-end="" d="M508,153, 674,432.5"></path><path class="link" style="stroke-width: 1.03px; stroke-opacity: 1; stroke: rgb(80, 80, 80);" marker-end="" d="M508,153, 674,475.5"></path><path class="link" style="stroke-width: 1.03px; stroke-opacity: 1; stroke: rgb(80, 80, 80);" marker-end="" d="M508,196, 674,131.5"></path><path class="link" style="stroke-width: 1.03px; stroke-opacity: 1; stroke: rgb(80, 80, 80);" marker-end="" d="M508,196, 674,174.5"></path><path class="link" style="stroke-width: 1.03px; stroke-opacity: 1; stroke: rgb(80, 80, 80);" marker-end="" d="M508,196, 674,217.5"></path><path class="link" style="stroke-width: 1.03px; stroke-opacity: 1; stroke: rgb(80, 80, 80);" marker-end="" d="M508,196, 674,260.5"></path><path class="link" style="stroke-width: 1.03px; stroke-opacity: 1; stroke: rgb(80, 80, 80);" marker-end="" d="M508,196, 674,303.5"></path><path class="link" style="stroke-width: 1.03px; stroke-opacity: 1; stroke: rgb(80, 80, 80);" marker-end="" d="M508,196, 674,346.5"></path><path class="link" style="stroke-width: 1.03px; stroke-opacity: 1; stroke: rgb(80, 80, 80);" marker-end="" d="M508,196, 674,389.5"></path><path class="link" style="stroke-width: 1.03px; stroke-opacity: 1; stroke: rgb(80, 80, 80);" marker-end="" d="M508,196, 674,432.5"></path><path class="link" style="stroke-width: 1.03px; stroke-opacity: 1; stroke: rgb(80, 80, 80);" marker-end="" d="M508,196, 674,475.5"></path><path class="link" style="stroke-width: 1.03px; stroke-opacity: 1; stroke: rgb(80, 80, 80);" marker-end="" d="M508,239, 674,131.5"></path><path class="link" style="stroke-width: 1.03px; stroke-opacity: 1; stroke: rgb(80, 80, 80);" marker-end="" d="M508,239, 674,174.5"></path><path class="link" style="stroke-width: 1.03px; stroke-opacity: 1; stroke: rgb(80, 80, 80);" marker-end="" d="M508,239, 674,217.5"></path><path class="link" style="stroke-width: 1.03px; stroke-opacity: 1; stroke: rgb(80, 80, 80);" marker-end="" d="M508,239, 674,260.5"></path><path class="link" style="stroke-width: 1.03px; stroke-opacity: 1; stroke: rgb(80, 80, 80);" marker-end="" d="M508,239, 674,303.5"></path><path class="link" style="stroke-width: 1.03px; stroke-opacity: 1; stroke: rgb(80, 80, 80);" marker-end="" d="M508,239, 674,346.5"></path><path class="link" style="stroke-width: 1.03px; stroke-opacity: 1; stroke: rgb(80, 80, 80);" marker-end="" d="M508,239, 674,389.5"></path><path class="link" style="stroke-width: 1.03px; stroke-opacity: 1; stroke: rgb(80, 80, 80);" marker-end="" d="M508,239, 674,432.5"></path><path class="link" style="stroke-width: 1.03px; stroke-opacity: 1; stroke: rgb(80, 80, 80);" marker-end="" d="M508,239, 674,475.5"></path><path class="link" style="stroke-width: 1.03px; stroke-opacity: 1; stroke: rgb(80, 80, 80);" marker-end="" d="M508,282, 674,131.5"></path><path class="link" style="stroke-width: 1.03px; stroke-opacity: 1; stroke: rgb(80, 80, 80);" marker-end="" d="M508,282, 674,174.5"></path><path class="link" style="stroke-width: 1.03px; stroke-opacity: 1; stroke: rgb(80, 80, 80);" marker-end="" d="M508,282, 674,217.5"></path><path class="link" style="stroke-width: 1.03px; stroke-opacity: 1; stroke: rgb(80, 80, 80);" marker-end="" d="M508,282, 674,260.5"></path><path class="link" style="stroke-width: 1.03px; stroke-opacity: 1; stroke: rgb(80, 80, 80);" marker-end="" d="M508,282, 674,303.5"></path><path class="link" style="stroke-width: 1.03px; stroke-opacity: 1; stroke: rgb(80, 80, 80);" marker-end="" d="M508,282, 674,346.5"></path><path class="link" style="stroke-width: 1.03px; stroke-opacity: 1; stroke: rgb(80, 80, 80);" marker-end="" d="M508,282, 674,389.5"></path><path class="link" style="stroke-width: 1.03px; stroke-opacity: 1; stroke: rgb(80, 80, 80);" marker-end="" d="M508,282, 674,432.5"></path><path class="link" style="stroke-width: 1.03px; stroke-opacity: 1; stroke: rgb(80, 80, 80);" marker-end="" d="M508,282, 674,475.5"></path><path class="link" style="stroke-width: 1.03px; stroke-opacity: 1; stroke: rgb(80, 80, 80);" marker-end="" d="M508,325, 674,131.5"></path><path class="link" style="stroke-width: 1.03px; stroke-opacity: 1; stroke: rgb(80, 80, 80);" marker-end="" d="M508,325, 674,174.5"></path><path class="link" style="stroke-width: 1.03px; stroke-opacity: 1; stroke: rgb(80, 80, 80);" marker-end="" d="M508,325, 674,217.5"></path><path class="link" style="stroke-width: 1.03px; stroke-opacity: 1; stroke: rgb(80, 80, 80);" marker-end="" d="M508,325, 674,260.5"></path><path class="link" style="stroke-width: 1.03px; stroke-opacity: 1; stroke: rgb(80, 80, 80);" marker-end="" d="M508,325, 674,303.5"></path><path class="link" style="stroke-width: 1.03px; stroke-opacity: 1; stroke: rgb(80, 80, 80);" marker-end="" d="M508,325, 674,346.5"></path><path class="link" style="stroke-width: 1.03px; stroke-opacity: 1; stroke: rgb(80, 80, 80);" marker-end="" d="M508,325, 674,389.5"></path><path class="link" style="stroke-width: 1.03px; stroke-opacity: 1; stroke: rgb(80, 80, 80);" marker-end="" d="M508,325, 674,432.5"></path><path class="link" style="stroke-width: 1.03px; stroke-opacity: 1; stroke: rgb(80, 80, 80);" marker-end="" d="M508,325, 674,475.5"></path><path class="link" style="stroke-width: 1.03px; stroke-opacity: 1; stroke: rgb(80, 80, 80);" marker-end="" d="M508,368, 674,131.5"></path><path class="link" style="stroke-width: 1.03px; stroke-opacity: 1; stroke: rgb(80, 80, 80);" marker-end="" d="M508,368, 674,174.5"></path><path class="link" style="stroke-width: 1.03px; stroke-opacity: 1; stroke: rgb(80, 80, 80);" marker-end="" d="M508,368, 674,217.5"></path><path class="link" style="stroke-width: 1.03px; stroke-opacity: 1; stroke: rgb(80, 80, 80);" marker-end="" d="M508,368, 674,260.5"></path><path class="link" style="stroke-width: 1.03px; stroke-opacity: 1; stroke: rgb(80, 80, 80);" marker-end="" d="M508,368, 674,303.5"></path><path class="link" style="stroke-width: 1.03px; stroke-opacity: 1; stroke: rgb(80, 80, 80);" marker-end="" d="M508,368, 674,346.5"></path><path class="link" style="stroke-width: 1.03px; stroke-opacity: 1; stroke: rgb(80, 80, 80);" marker-end="" d="M508,368, 674,389.5"></path><path class="link" style="stroke-width: 1.03px; stroke-opacity: 1; stroke: rgb(80, 80, 80);" marker-end="" d="M508,368, 674,432.5"></path><path class="link" style="stroke-width: 1.03px; stroke-opacity: 1; stroke: rgb(80, 80, 80);" marker-end="" d="M508,368, 674,475.5"></path><path class="link" style="stroke-width: 1.03px; stroke-opacity: 1; stroke: rgb(80, 80, 80);" marker-end="" d="M508,411, 674,131.5"></path><path class="link" style="stroke-width: 1.03px; stroke-opacity: 1; stroke: rgb(80, 80, 80);" marker-end="" d="M508,411, 674,174.5"></path><path class="link" style="stroke-width: 1.03px; stroke-opacity: 1; stroke: rgb(80, 80, 80);" marker-end="" d="M508,411, 674,217.5"></path><path class="link" style="stroke-width: 1.03px; stroke-opacity: 1; stroke: rgb(80, 80, 80);" marker-end="" d="M508,411, 674,260.5"></path><path class="link" style="stroke-width: 1.03px; stroke-opacity: 1; stroke: rgb(80, 80, 80);" marker-end="" d="M508,411, 674,303.5"></path><path class="link" style="stroke-width: 1.03px; stroke-opacity: 1; stroke: rgb(80, 80, 80);" marker-end="" d="M508,411, 674,346.5"></path><path class="link" style="stroke-width: 1.03px; stroke-opacity: 1; stroke: rgb(80, 80, 80);" marker-end="" d="M508,411, 674,389.5"></path><path class="link" style="stroke-width: 1.03px; stroke-opacity: 1; stroke: rgb(80, 80, 80);" marker-end="" d="M508,411, 674,432.5"></path><path class="link" style="stroke-width: 1.03px; stroke-opacity: 1; stroke: rgb(80, 80, 80);" marker-end="" d="M508,411, 674,475.5"></path><path class="link" style="stroke-width: 1.03px; stroke-opacity: 1; stroke: rgb(80, 80, 80);" marker-end="" d="M508,454, 674,131.5"></path><path class="link" style="stroke-width: 1.03px; stroke-opacity: 1; stroke: rgb(80, 80, 80);" marker-end="" d="M508,454, 674,174.5"></path><path class="link" style="stroke-width: 1.03px; stroke-opacity: 1; stroke: rgb(80, 80, 80);" marker-end="" d="M508,454, 674,217.5"></path><path class="link" style="stroke-width: 1.03px; stroke-opacity: 1; stroke: rgb(80, 80, 80);" marker-end="" d="M508,454, 674,260.5"></path><path class="link" style="stroke-width: 1.03px; stroke-opacity: 1; stroke: rgb(80, 80, 80);" marker-end="" d="M508,454, 674,303.5"></path><path class="link" style="stroke-width: 1.03px; stroke-opacity: 1; stroke: rgb(80, 80, 80);" marker-end="" d="M508,454, 674,346.5"></path><path class="link" style="stroke-width: 1.03px; stroke-opacity: 1; stroke: rgb(80, 80, 80);" marker-end="" d="M508,454, 674,389.5"></path><path class="link" style="stroke-width: 1.03px; stroke-opacity: 1; stroke: rgb(80, 80, 80);" marker-end="" d="M508,454, 674,432.5"></path><path class="link" style="stroke-width: 1.03px; stroke-opacity: 1; stroke: rgb(80, 80, 80);" marker-end="" d="M508,454, 674,475.5"></path><path class="link" style="stroke-width: 1.03px; stroke-opacity: 1; stroke: rgb(80, 80, 80);" marker-end="" d="M674,131.5, 840,282"></path><path class="link" style="stroke-width: 1.03px; stroke-opacity: 1; stroke: rgb(80, 80, 80);" marker-end="" d="M674,131.5, 840,325"></path><path class="link" style="stroke-width: 1.03px; stroke-opacity: 1; stroke: rgb(80, 80, 80);" marker-end="" d="M674,174.5, 840,282"></path><path class="link" style="stroke-width: 1.03px; stroke-opacity: 1; stroke: rgb(80, 80, 80);" marker-end="" d="M674,174.5, 840,325"></path><path class="link" style="stroke-width: 1.03px; stroke-opacity: 1; stroke: rgb(80, 80, 80);" marker-end="" d="M674,217.5, 840,282"></path><path class="link" style="stroke-width: 1.03px; stroke-opacity: 1; stroke: rgb(80, 80, 80);" marker-end="" d="M674,217.5, 840,325"></path><path class="link" style="stroke-width: 1.03px; stroke-opacity: 1; stroke: rgb(80, 80, 80);" marker-end="" d="M674,260.5, 840,282"></path><path class="link" style="stroke-width: 1.03px; stroke-opacity: 1; stroke: rgb(80, 80, 80);" marker-end="" d="M674,260.5, 840,325"></path><path class="link" style="stroke-width: 1.03px; stroke-opacity: 1; stroke: rgb(80, 80, 80);" marker-end="" d="M674,303.5, 840,282"></path><path class="link" style="stroke-width: 1.03px; stroke-opacity: 1; stroke: rgb(80, 80, 80);" marker-end="" d="M674,303.5, 840,325"></path><path class="link" style="stroke-width: 1.03px; stroke-opacity: 1; stroke: rgb(80, 80, 80);" marker-end="" d="M674,346.5, 840,282"></path><path class="link" style="stroke-width: 1.03px; stroke-opacity: 1; stroke: rgb(80, 80, 80);" marker-end="" d="M674,346.5, 840,325"></path><path class="link" style="stroke-width: 1.03px; stroke-opacity: 1; stroke: rgb(80, 80, 80);" marker-end="" d="M674,389.5, 840,282"></path><path class="link" style="stroke-width: 1.03px; stroke-opacity: 1; stroke: rgb(80, 80, 80);" marker-end="" d="M674,389.5, 840,325"></path><path class="link" style="stroke-width: 1.03px; stroke-opacity: 1; stroke: rgb(80, 80, 80);" marker-end="" d="M674,432.5, 840,282"></path><path class="link" style="stroke-width: 1.03px; stroke-opacity: 1; stroke: rgb(80, 80, 80);" marker-end="" d="M674,432.5, 840,325"></path><path class="link" style="stroke-width: 1.03px; stroke-opacity: 1; stroke: rgb(80, 80, 80);" marker-end="" d="M674,475.5, 840,282"></path><path class="link" style="stroke-width: 1.03px; stroke-opacity: 1; stroke: rgb(80, 80, 80);" marker-end="" d="M674,475.5, 840,325"></path><circle r="11.5" class="node" id="0_0" style="fill: rgb(255, 255, 255); stroke: rgb(51, 51, 51);" cx="508" cy="153"></circle><circle r="11.5" class="node" id="0_1" style="fill: rgb(255, 255, 255); stroke: rgb(51, 51, 51);" cx="508" cy="196"></circle><circle r="11.5" class="node" id="0_2" style="fill: rgb(255, 255, 255); stroke: rgb(51, 51, 51);" cx="508" cy="239"></circle><circle r="11.5" class="node" id="0_3" style="fill: rgb(255, 255, 255); stroke: rgb(51, 51, 51);" cx="508" cy="282"></circle><circle r="11.5" class="node" id="0_4" style="fill: rgb(255, 255, 255); stroke: rgb(51, 51, 51);" cx="508" cy="325"></circle><circle r="11.5" class="node" id="0_5" style="fill: rgb(255, 255, 255); stroke: rgb(51, 51, 51);" cx="508" cy="368"></circle><circle r="11.5" class="node" id="0_6" style="fill: rgb(255, 255, 255); stroke: rgb(51, 51, 51);" cx="508" cy="411"></circle><circle r="11.5" class="node" id="0_7" style="fill: rgb(255, 255, 255); stroke: rgb(51, 51, 51);" cx="508" cy="454"></circle><circle r="11.5" class="node" id="1_0" style="fill: rgb(255, 255, 255); stroke: rgb(51, 51, 51);" cx="674" cy="131.5"></circle><circle r="11.5" class="node" id="1_1" style="fill: rgb(255, 255, 255); stroke: rgb(51, 51, 51);" cx="674" cy="174.5"></circle><circle r="11.5" class="node" id="1_2" style="fill: rgb(255, 255, 255); stroke: rgb(51, 51, 51);" cx="674" cy="217.5"></circle><circle r="11.5" class="node" id="1_3" style="fill: rgb(255, 255, 255); stroke: rgb(51, 51, 51);" cx="674" cy="260.5"></circle><circle r="11.5" class="node" id="1_4" style="fill: rgb(255, 255, 255); stroke: rgb(51, 51, 51);" cx="674" cy="303.5"></circle><circle r="11.5" class="node" id="1_5" style="fill: rgb(255, 255, 255); stroke: rgb(51, 51, 51);" cx="674" cy="346.5"></circle><circle r="11.5" class="node" id="1_6" style="fill: rgb(255, 255, 255); stroke: rgb(51, 51, 51);" cx="674" cy="389.5"></circle><circle r="11.5" class="node" id="1_7" style="fill: rgb(255, 255, 255); stroke: rgb(51, 51, 51);" cx="674" cy="432.5"></circle><circle r="11.5" class="node" id="1_8" style="fill: rgb(255, 255, 255); stroke: rgb(51, 51, 51);" cx="674" cy="475.5"></circle><circle r="11.5" class="node" id="2_0" style="fill: rgb(255, 255, 255); stroke: rgb(51, 51, 51);" cx="840" cy="282"></circle><circle r="11.5" class="node" id="2_1" style="fill: rgb(255, 255, 255); stroke: rgb(51, 51, 51);" cx="840" cy="325"></circle><text class="text" dy=".35em" style="font-size: 12px;" x="473" y="518.5">Input Layer ∈ ℝ⁸</text><text class="text" dy=".35em" style="font-size: 12px;" x="639" y="518.5">Hidden Layer ∈ ℝ⁹</text><text class="text" dy=".35em" style="font-size: 12px;" x="805" y="518.5">Output Layer ∈ ℝ²</text></g><defs><marker id="arrow" viewBox="0 -5 10 10" markerWidth="7" markerHeight="7" orient="auto" refX="44.199999999999996"><path d="M0,-5L10,0L0,5" style="stroke: rgb(80, 80, 80); fill: none;"></path></marker></defs></svg>